<svg width="78" height="22" viewBox="0 0 78 22" fill="none" xmlns="http://www.w3.org/2000/svg">
<path d="M1.358 17C1.20467 17 1.128 16.931 1.128 16.793L0.0700001 1.153C0.0700001 1.07633 0.0930001 1.015 0.139 0.968999C0.185 0.922999 0.238667 0.899999 0.3 0.899999H2.071C2.209 0.899999 2.28567 0.968999 2.301 1.107L2.784 11.894C2.784 11.9247 2.79167 11.94 2.807 11.94C2.83767 11.94 2.86067 11.9247 2.876 11.894L5.797 1.107C5.843 0.968999 5.92733 0.899999 6.05 0.899999H7.545C7.66767 0.899999 7.729 0.968999 7.729 1.107L8.12 11.894C8.13533 11.9247 8.15067 11.94 8.166 11.94C8.18133 11.94 8.19667 11.9247 8.212 11.894L11.202 1.107C11.2327 0.968999 11.317 0.899999 11.455 0.899999H13.18C13.3333 0.899999 13.3947 0.984333 13.364 1.153L8.626 16.793C8.58 16.931 8.488 17 8.35 17H6.763C6.64033 17 6.579 16.931 6.579 16.793L6.211 5.914C6.19567 5.88333 6.17267 5.868 6.142 5.868C6.12667 5.868 6.119 5.88333 6.119 5.914L3.175 16.793C3.129 16.931 3.04467 17 2.922 17H1.358ZM19.1537 5.523C19.169 5.46167 19.1997 5.408 19.2457 5.362C19.2917 5.316 19.3454 5.293 19.4067 5.293H21.1087C21.2467 5.293 21.3157 5.36967 21.3157 5.523L19.9127 16.77C19.9127 16.8313 19.8897 16.885 19.8437 16.931C19.7977 16.977 19.744 17 19.6827 17H17.9807C17.8427 17 17.7737 16.9233 17.7737 16.77L17.8887 15.965C17.8887 15.919 17.8734 15.896 17.8427 15.896C17.8274 15.8807 17.8044 15.8883 17.7737 15.919C17.4824 16.3483 17.1297 16.6703 16.7157 16.885C16.3017 17.0843 15.8647 17.184 15.4047 17.184C14.5614 17.184 13.9174 16.931 13.4727 16.425C13.028 15.9037 12.8057 15.1907 12.8057 14.286C12.8057 14.148 12.821 13.895 12.8517 13.527L13.4267 8.766C13.5647 7.63133 13.9327 6.742 14.5307 6.098C15.144 5.43867 15.9337 5.109 16.8997 5.109C17.3444 5.109 17.743 5.21633 18.0957 5.431C18.4637 5.63033 18.7474 5.94467 18.9467 6.374C18.9774 6.40467 19.0004 6.42 19.0157 6.42C19.0464 6.40467 19.0617 6.374 19.0617 6.328L19.1537 5.523ZM16.3707 15.275C16.846 15.275 17.2524 15.0987 17.5897 14.746C17.927 14.3933 18.1264 13.941 18.1877 13.389L18.7397 8.904C18.755 8.82733 18.7627 8.72 18.7627 8.582C18.7627 8.10667 18.64 7.731 18.3947 7.455C18.1494 7.16367 17.8197 7.018 17.4057 7.018C16.9304 7.018 16.524 7.19433 16.1867 7.547C15.8494 7.89967 15.6424 8.352 15.5657 8.904L15.0137 13.389C14.9984 13.4657 14.9907 13.573 14.9907 13.711C14.9907 14.171 15.1134 14.5467 15.3587 14.838C15.6194 15.1293 15.9567 15.275 16.3707 15.275ZM21.683 21.577C21.6063 21.577 21.568 21.5003 21.568 21.347L21.752 19.99C21.752 19.9287 21.775 19.875 21.821 19.829C21.867 19.783 21.9207 19.76 21.982 19.76C22.4573 19.7447 22.8407 19.668 23.132 19.53C23.4233 19.392 23.6763 19.1313 23.891 18.748C24.121 18.3647 24.3433 17.805 24.558 17.069L24.535 16.954L23.086 5.546V5.5C23.086 5.43867 23.109 5.39267 23.155 5.362C23.201 5.316 23.2547 5.293 23.316 5.293H25.156C25.294 5.293 25.363 5.362 25.363 5.5L25.984 13.803C25.984 13.849 25.9917 13.872 26.007 13.872C26.0377 13.872 26.0607 13.849 26.076 13.803L28.698 5.5C28.744 5.362 28.836 5.293 28.974 5.293L30.814 5.316C30.8907 5.316 30.9443 5.339 30.975 5.385C31.0057 5.431 31.0057 5.49233 30.975 5.569L26.398 17.805C25.9993 18.863 25.6237 19.645 25.271 20.151C24.9183 20.6723 24.4813 21.0403 23.96 21.255C23.4387 21.4697 22.718 21.577 21.798 21.577H21.683ZM34.3378 17.138C33.3258 17.138 32.5285 16.9003 31.9458 16.425C31.3632 15.9497 31.0718 15.298 31.0718 14.47C31.0718 14.2707 31.0795 14.125 31.0948 14.033L31.1178 13.826C31.1332 13.7647 31.1638 13.711 31.2098 13.665C31.2558 13.619 31.3095 13.596 31.3708 13.596H32.9578C33.0345 13.596 33.0882 13.619 33.1188 13.665C33.1648 13.711 33.1802 13.7647 33.1648 13.826L33.1418 13.987C33.0805 14.401 33.1878 14.7537 33.4638 15.045C33.7398 15.321 34.1155 15.459 34.5908 15.459C35.0815 15.459 35.4802 15.3057 35.7868 14.999C36.1088 14.677 36.2698 14.286 36.2698 13.826C36.2698 13.3967 36.1165 13.0747 35.8098 12.86C35.5032 12.63 35.0125 12.3617 34.3378 12.055C33.8472 11.825 33.4332 11.6027 33.0958 11.388C32.7738 11.1733 32.4825 10.8667 32.2218 10.468C31.9765 10.0693 31.8538 9.57867 31.8538 8.996C31.8538 8.78133 31.8615 8.61267 31.8768 8.49C31.9995 7.44733 32.4135 6.63467 33.1188 6.052C33.8242 5.46933 34.7135 5.178 35.7868 5.178C36.7835 5.178 37.5578 5.431 38.1098 5.937C38.6618 6.42767 38.9378 7.11 38.9378 7.984C38.9378 8.214 38.9302 8.39033 38.9148 8.513V8.582C38.8842 8.73533 38.7998 8.812 38.6618 8.812H37.1208C36.9675 8.812 36.9062 8.73533 36.9368 8.582V8.421L36.9598 8.214C36.9598 7.846 36.8372 7.53933 36.5918 7.294C36.3465 7.04867 36.0168 6.926 35.6028 6.926C35.1582 6.926 34.7825 7.07167 34.4758 7.363C34.1692 7.65433 33.9852 8.007 33.9238 8.421C33.8932 8.743 33.9545 9.01133 34.1078 9.226C34.2612 9.44067 34.4528 9.617 34.6828 9.755C34.9282 9.87767 35.3115 10.0617 35.8328 10.307C36.3542 10.5677 36.7835 10.813 37.1208 11.043C37.4735 11.2577 37.7802 11.5643 38.0408 11.963C38.3015 12.3617 38.4318 12.8447 38.4318 13.412C38.4318 14.5313 38.0562 15.436 37.3048 16.126C36.5535 16.8007 35.5645 17.138 34.3378 17.138ZM49.4258 2.579C49.3952 2.73233 49.3108 2.809 49.1728 2.809H44.1588C44.1435 2.809 44.1205 2.81667 44.0898 2.832C44.0745 2.84733 44.0668 2.87033 44.0668 2.901L43.4458 7.892C43.4458 7.95333 43.4765 7.984 43.5378 7.984H46.5968C46.7502 7.984 46.8115 8.06067 46.7808 8.214L46.5968 9.663C46.5968 9.72433 46.5738 9.778 46.5278 9.824C46.4818 9.87 46.4282 9.893 46.3668 9.893H43.3078C43.2618 9.893 43.2235 9.92367 43.1928 9.985L42.3648 16.77C42.3342 16.9233 42.2498 17 42.1118 17H40.4098C40.3485 17 40.2948 16.977 40.2488 16.931C40.2182 16.885 40.2105 16.8313 40.2258 16.77L42.1348 1.13C42.1502 1.06867 42.1808 1.015 42.2268 0.968999C42.2728 0.922999 42.3265 0.899999 42.3878 0.899999H49.4028C49.5562 0.899999 49.6175 0.976665 49.5868 1.13L49.4258 2.579ZM52.2351 17.184C51.1771 17.184 50.3491 16.908 49.7511 16.356C49.1684 15.804 48.8771 15.0527 48.8771 14.102C48.8771 13.9947 48.8924 13.803 48.9231 13.527L49.4981 8.766C49.6361 7.67733 50.0884 6.79567 50.8551 6.121C51.6217 5.44633 52.5801 5.109 53.7301 5.109C54.7881 5.109 55.6161 5.39267 56.2141 5.96C56.8121 6.512 57.1111 7.25567 57.1111 8.191C57.1111 8.29833 57.0957 8.49 57.0651 8.766L56.4901 13.527C56.3521 14.631 55.8997 15.5203 55.1331 16.195C54.3664 16.8543 53.4004 17.184 52.2351 17.184ZM52.4881 15.252C52.9634 15.252 53.3774 15.0757 53.7301 14.723C54.0827 14.3703 54.2897 13.918 54.3511 13.366L54.9031 8.904C54.9184 8.82733 54.9261 8.72767 54.9261 8.605C54.9261 8.12967 54.7957 7.74633 54.5351 7.455C54.2744 7.16367 53.9294 7.018 53.5001 7.018C53.0247 7.018 52.6107 7.19433 52.2581 7.547C51.9207 7.89967 51.7137 8.352 51.6371 8.904L51.0851 13.366C51.0697 13.4427 51.0621 13.55 51.0621 13.688C51.0621 14.1633 51.1924 14.5467 51.4531 14.838C51.7137 15.114 52.0587 15.252 52.4881 15.252ZM61.9436 17.184C60.8856 17.184 60.0576 16.908 59.4596 16.356C58.8769 15.804 58.5856 15.0527 58.5856 14.102C58.5856 13.9947 58.6009 13.803 58.6316 13.527L59.2066 8.766C59.3446 7.67733 59.7969 6.79567 60.5636 6.121C61.3303 5.44633 62.2886 5.109 63.4386 5.109C64.4966 5.109 65.3246 5.39267 65.9226 5.96C66.5206 6.512 66.8196 7.25567 66.8196 8.191C66.8196 8.29833 66.8043 8.49 66.7736 8.766L66.1986 13.527C66.0606 14.631 65.6083 15.5203 64.8416 16.195C64.0749 16.8543 63.1089 17.184 61.9436 17.184ZM62.1966 15.252C62.6719 15.252 63.0859 15.0757 63.4386 14.723C63.7913 14.3703 63.9983 13.918 64.0596 13.366L64.6116 8.904C64.6269 8.82733 64.6346 8.72767 64.6346 8.605C64.6346 8.12967 64.5043 7.74633 64.2436 7.455C63.9829 7.16367 63.6379 7.018 63.2086 7.018C62.7333 7.018 62.3193 7.19433 61.9666 7.547C61.6293 7.89967 61.4223 8.352 61.3456 8.904L60.7936 13.366C60.7783 13.4427 60.7706 13.55 60.7706 13.688C60.7706 14.1633 60.9009 14.5467 61.1616 14.838C61.4223 15.114 61.7673 15.252 62.1966 15.252ZM75.1941 1.13C75.2248 0.976665 75.3091 0.899999 75.4471 0.899999H77.1491C77.2104 0.899999 77.2564 0.922999 77.2871 0.968999C77.3331 1.015 77.3484 1.06867 77.3331 1.13L75.4011 16.77C75.4011 16.8313 75.3781 16.885 75.3321 16.931C75.2861 16.977 75.2324 17 75.1711 17H73.4691C73.3311 17 73.2621 16.9233 73.2621 16.77L73.3081 16.402C73.3234 16.3713 73.3158 16.3483 73.2851 16.333C73.2698 16.3177 73.2468 16.3253 73.2161 16.356C72.8941 16.632 72.5414 16.839 72.1581 16.977C71.7901 17.115 71.4298 17.184 71.0771 17.184C70.2031 17.184 69.5208 16.9157 69.0301 16.379C68.5394 15.8423 68.2941 15.1217 68.2941 14.217C68.2941 14.079 68.3094 13.8567 68.3401 13.55L68.9151 8.766C69.0531 7.63133 69.4518 6.742 70.1111 6.098C70.7704 5.43867 71.5831 5.109 72.5491 5.109C72.9018 5.109 73.2468 5.178 73.5841 5.316C73.9368 5.454 74.2358 5.661 74.4811 5.937C74.5118 5.96767 74.5348 5.97533 74.5501 5.96C74.5808 5.94467 74.5961 5.92167 74.5961 5.891L75.1941 1.13ZM71.8591 15.275C72.2884 15.275 72.6641 15.137 72.9861 14.861C73.3081 14.5697 73.5304 14.194 73.6531 13.734L74.2741 8.559C74.2741 8.099 74.1438 7.731 73.8831 7.455C73.6378 7.16367 73.3081 7.018 72.8941 7.018C72.4188 7.018 72.0048 7.19433 71.6521 7.547C71.3148 7.89967 71.1078 8.352 71.0311 8.904L70.4791 13.389C70.4638 13.4657 70.4561 13.573 70.4561 13.711C70.4561 14.171 70.5788 14.5467 70.8241 14.838C71.0848 15.1293 71.4298 15.275 71.8591 15.275Z" fill="black"/>
</svg>
